<svg height="25" width="25" enable-background="new 0 0 100 100" viewBox="0 0 100 100"
                         xmlns="http://www.w3.org/2000/svg">
                        <path d="m9.1 42.4h26.6c3.6 0 6.5-2.9 6.5-6.5v-26.6c0-3.6-2.9-6.5-6.5-6.5h-26.6c-3.6 0-6.6 2.9-6.6 6.5v26.5c0 3.6 3 6.6 6.6 6.6zm-1.1-33.1c0-.6.5-1 1.1-1h26.6c.6 0 1 .5 1 1v26.6c0 .4-.4 1-1 1h-26.6c-.6 0-1.1-.5-1.1-1.1z" />
                        <path d="m64.1 42.4h26.5c3.5 0 6.5-2.8 6.6-6.3v-26.7c0-3.6-2.9-6.5-6.5-6.5h-26.6c-3.6 0-6.5 2.9-6.5 6.5v26.5c-.1 3.5 2.9 6.5 6.5 6.5zm-1.1-33.1c0-.6.5-1 1-1h26.6c.6 0 1 .5 1 1v26.5c-.1.5-.5 1-1.2 1h-26.3c-.6 0-1-.5-1-1.1v-26.4z" />
                        <path d="m35.9 57.7h-26.6c-3.6 0-6.5 2.9-6.5 6.5v26.5c0 3.6 2.9 6.5 6.5 6.5h26.5c3.5 0 6.5-2.8 6.6-6.3v-26.7c.1-3.6-2.9-6.5-6.5-6.5zm1.1 33c-.1.5-.5 1-1.2 1h-26.5c-.6 0-1-.5-1-1v-26.5c0-.6.5-1 1-1h26.6c.6 0 1.1.5 1.1 1z" />
                        <path d="m90.8 57.7h-26.6c-3.6 0-6.5 2.9-6.5 6.5v26.5c0 3.6 2.9 6.5 6.5 6.5h26.6c3.4 0 6.4-2.8 6.5-6.3v-26.7c0-3.6-2.9-6.5-6.5-6.5zm1 33c-.1.5-.6 1-1 1h-26.6c-.6 0-1-.5-1-1v-26.5c0-.6.5-1 1-1h26.6c.6 0 1 .5 1 1z" />
                    </svg>