<svg enable-background="new 0 0 100 100" viewBox="0 0 100 100"
                         xmlns="http://www.w3.org/2000/svg">
                        <path d="m67.8 49c0-.3 0-.5-.1-.8 0-.3-.1-.6-.1-.9s-.1-.7-.2-1c0-.2-.1-.3-.1-.5 0-.1 0-.1-.1-.2-.1-.3-.2-.7-.3-1-.1-.2-.1-.5-.2-.7s-.2-.5-.3-.7c-.1-.3-.3-.6-.4-1-.1-.2-.2-.3-.2-.5-.2-.4-.4-.8-.6-1.1 0 0 0-.1-.1-.1-.1-.1-.1-.2-.2-.2-.2-.4-.5-.7-.7-1.1-.1-.2-.3-.3-.4-.5-.2-.3-.4-.5-.7-.8-.2-.2-.5-.5-.7-.7-.1-.1-.3-.3-.4-.4-.3-.3-.7-.6-1.1-.9-.1 0-.1-.1-.2-.1-.4-.3-.9-.7-1.4-.9-.5-.3-.9-.6-1.4-.8 0 0-.1 0-.1-.1-.4-.2-.8-.4-1.3-.6-.1-.1-.3-.1-.4-.2-.3-.1-.7-.2-1.1-.3-.2-.1-.4-.1-.7-.2-.1 0-.2-.1-.3-.1-.2-.1-.5-.1-.7-.1s-.5-.1-.7-.1c-.4-.1-.8-.1-1.2-.1-.1 0-.3 0-.4 0-.5 0-1.1 0-1.6 0-3.1.1-6.1 1-8.7 2.6-3.8 2.4-6.6 6-7.8 10.4v.2c0 .2-.1.3-.1.5-.1.3-.1.6-.2.9 0 .1 0 .2-.1.3-.1.5-.1.9-.2 1.4v.3 1.5.2c0 .5.1 1.1.1 1.6v.1c.1.6.2 1.1.3 1.7v.1c.1.4.2.8.3 1.2 0 .2.1.3.2.5.1.3.2.6.3.9s.2.5.3.7.2.4.3.6c.2.3.3.6.5 1 .1.1.1.2.2.3 0 0 .1.1.1.1.2.4.5.7.7 1.1.1.1.1.2.2.3.3.4.7.8 1 1.2l.6.6c.2.1.3.3.5.4.3.2.5.4.8.7.1.1.3.2.4.3.3.2.6.4.8.6.2.1.3.2.5.3.3.2.6.3.8.5.2.1.5.2.7.4.2.1.4.2.7.3 1 .5 2.1.8 3.2 1.1.6.2 1.3.3 2 .3h.1c.7.1 1.3.1 2 .1 1.3 0 2.7-.2 4.1-.5 4.5-1.1 8.3-3.8 10.8-7.6.1-.1.1-.2.2-.3.2-.3.3-.5.4-.8.1-.1.1-.2.2-.3.2-.4.4-.7.5-1.1 0-.1.1-.2.1-.3.2-.4.3-.9.5-1.3 0 0 0 0 0-.1.5-1.6.8-3.2.9-4.9 0-.1 0-.2 0-.4.2-.1.2-.5.2-1zm-5.5 1.4c0 .8-.1 1.6-.3 2.4-.3 1.2-.7 2.3-1.3 3.3 0 0 0 .1-.1.1-.2.3-.4.6-.6.9 0 0 0 .1-.1.1-.9 1.3-2.1 2.4-3.5 3.2-1 .6-2.1 1.1-3.3 1.4-.3.1-.7.2-1.1.2h-.1c-.4.1-.7.1-1.1.1h-.1c-1.2.1-2.4 0-3.6-.3-.4-.1-.7-.2-1.1-.3h-.1c-.3-.1-.6-.2-.8-.3-.1-.1-.2-.1-.4-.2s-.4-.2-.6-.3-.4-.2-.5-.3-.3-.2-.4-.2c-.2-.1-.4-.3-.6-.4-.1-.1-.2-.2-.3-.2-.2-.2-.4-.3-.6-.5-.1-.1-.2-.2-.3-.3-.2-.2-.3-.3-.5-.5-.1-.1-.3-.3-.4-.5-.1-.1-.2-.3-.4-.4-.1-.2-.3-.4-.4-.6-.1-.1-.2-.3-.3-.4-.1-.2-.2-.4-.3-.6s-.2-.4-.3-.5-.1-.2-.2-.4c-.1-.3-.2-.5-.3-.8v-.1c-.1-.4-.2-.7-.3-1.1 0-.5 0-.9-.1-1.3-.1-.4-.1-.8-.1-1.2 0 0 0 0 0-.1 0-.4 0-.8 0-1.1v-.1c0-.4.1-.7.1-1.1v-.1c.8-4.7 4.3-8.7 9.3-9.8 1.1-.3 2.3-.4 3.4-.3h.4c.3 0 .5.1.8.1.2 0 .4.1.6.1s.5.1.7.2c.1 0 .2.1.3.1.3.1.6.2.9.3 0 0 .1 0 .1.1.7.3 1.4.6 2.1 1 .3.2.7.4 1 .7.3.2.6.4.8.7.1.1.2.2.3.2l.5.5c.1.2.3.3.4.5.1.1.2.2.3.4.2.2.3.5.5.7.1.1.1.2.2.3.2.3.3.5.4.8.1.1.1.2.2.3.1.2.2.4.3.7.1.2.1.3.2.5s.1.4.2.5c.1.2.1.4.2.7 0 .2.1.3.1.5s.1.4.1.6.1.5.1.7v.4z" />
                        <path d="m94.1 61-9.2-5.2c.3-2.1.5-4 .5-5.7 0-2-.2-4-.5-5.8l9.3-5.3c.9-.5 1.5-1.3 1.8-2.3s.1-2-.4-2.9l-8.7-15.1c-1-1.8-3.3-2.4-5.1-1.4l-9.3 5.3c-2.9-2.4-6.3-4.3-9.9-5.7v-10.7c0-2.1-1.7-3.8-3.8-3.8h-17.4c-2.1 0-3.8 1.7-3.8 3.8v10.8c-3.7 1.4-7 3.4-9.9 5.7l-9.3-5.3c-1.8-1-4.1-.4-5.1 1.4l-8.8 15.1c-.5.9-.6 1.9-.4 2.9.3 1 .9 1.8 1.8 2.3l9.3 5.2c-.3 1.7-.5 3.7-.5 5.7 0 1.9.1 3.9.4 5.7l-9.4 5.4c-.9.5-1.5 1.3-1.8 2.3s-.1 2 .4 2.8l8.7 15.1c1 1.8 3.3 2.4 5.1 1.4l9.3-5.3c2.9 2.4 6.3 4.3 9.9 5.7v10.7c0 2.1 1.7 3.8 3.8 3.8h17.4c2.1 0 3.8-1.7 3.8-3.8v-10.8c3.7-1.4 7-3.4 9.9-5.7l9.3 5.3c1.8 1 4.1.4 5.1-1.4l8.7-15.1c.5-.9.6-1.9.4-2.9s-.7-1.7-1.6-2.2zm-11.2 16-11.3-6.5-1.5 1.4c-3.1 2.9-7 5.2-11.3 6.6l-1.9.6v13h-13.9v-12.9l-1.9-.6c-4.3-1.4-8.2-3.7-11.3-6.6l-1.5-1.4-11.3 6.5-7-12.1 11.2-6.4-.4-1.9c-.4-2.1-.6-4.3-.6-6.6 0-2.4.2-4.6.7-6.5l.5-2-11.3-6.4 7-12.2 11.3 6.5 1.5-1.4c3.1-2.9 7-5.2 11.3-6.6l1.9-.6v-13h13.9v12.9l1.9.6c4.3 1.4 8.2 3.7 11.3 6.6l1.5 1.4 11.3-6.5 7 12.1-11.3 6.5.5 2c.5 1.9.7 4.1.7 6.5 0 1.9-.2 4-.8 6.6l-.4 1.9 11.1 6.3z" />
                    </svg>