<svg enable-background="new 0 0 500 500" height="25" viewBox="0 0 500 500" width="25"
                         xmlns="http://www.w3.org/2000/svg">
                        <path d="m184.99 136.14h186.201c6.594 0 12.309-5.275 12.309-12.308s-5.275-12.308-12.309-12.308h-186.201c-6.594 0-12.308 5.275-12.308 12.308s5.714 12.308 12.308 12.308z" />
                        <path d="m371.191 233.726h-186.201c-6.594 0-12.308 5.275-12.308 12.308 0 6.594 5.275 11.868 12.308 11.868h186.201c6.594 0 12.309-5.274 12.309-11.868-.439-7.033-5.715-12.308-12.309-12.308z" />
                        <path d="m371.191 355.049h-186.201c-6.594 0-12.308 5.275-12.308 12.309s5.275 12.308 12.308 12.308h186.201c6.594 0 12.309-5.274 12.309-12.308s-5.715-12.309-12.309-12.309z" />
                        <ellipse cx="123.395" cy="124.204" rx="19.781" ry="19.781" />
                        <ellipse cx="123.255" cy="245.583" rx="19.78" ry="19.78" />
                        <ellipse cx="123.115" cy="366.963" rx="19.781" ry="19.781" />
                        <path d="m386 494h-272c-34.462 0-62.5-28.037-62.5-62.5v-363c0-34.462 28.038-62.5 62.5-62.5h272c34.463 0 62.5 28.038 62.5 62.5v363c0 34.463-28.037 62.5-62.5 62.5zm-272-463c-20.678 0-37.5 16.822-37.5 37.5v363c0 20.678 16.822 37.5 37.5 37.5h272c20.678 0 37.5-16.822 37.5-37.5v-363c0-20.678-16.822-37.5-37.5-37.5z" />
                    </svg>