<svg enable-background="new 0 0 500 500" height="500" viewBox="0 0 500 500" width="500"
                         xmlns="http://www.w3.org/2000/svg">
                        <path d="m50.5 434.125h209c11.5 0 20.5-6.75 20.5-15.375v-46.25c0-7.5-6-14-14-14s-14 6-14 14v29.568h-195.5v-303.761h196v29.693c0 7.5 6 14 14 14s13.5-6.5 13.5-14v-46.375c0-8.625-9-15.75-20.5-15.75h-209c-11.5 0-21 12.071-21 20.801v326.648c0 8.365 9.5 20.801 21 20.801z" />
                        <path d="m431.5 237h-287c-7.5 0-14 6-14 14s6 14 14 14h286.5l-50.5 50.5c-5.5 5.5-5.5 14 0 19.5 5.5 5 14.5 5 19.5-.5l84-83.5-84-84c-2.5-2.5-6-4-10-4-3.5 0-7 1.5-9.5 4-5.5 5.5-5.5 14 0 19.5z" />
                    </svg>