<svg enable-background="new 0 0 100 100" height="25" viewBox="0 0 100 100" width="25"
                         xmlns="http://www.w3.org/2000/svg">
                        <path d="m93.4 68.3-11.8-6.8 11.5-6.4c1.4-.6 2.2-2 2.3-3.5.1-1.7-.8-3.2-2.2-4l-12.9-7.5 13-7.1c1.4-.6 2.2-2 2.3-3.5.1-1.7-.8-3.2-2.2-4l-40.2-23.4c-1.4-.9-3.1-.9-4.4 0l-42.2 23.4c-1.4.8-2.2 2.2-2.2 3.8s.8 3 2.2 3.8l13.4 7-13.3 7.4c-1.4.8-2.2 2.2-2.2 3.8s.8 3 2.3 3.9l12 6.3-12.1 6.7c-1.3.8-2.2 2.2-2.2 3.8s.8 3 2.2 3.8l42.1 22.1c.6.4 1.4.7 2.2.7.7 0 1.5-.2 2.2-.6l40.2-22.1c1.4-.6 2.2-2 2.3-3.5 0-1.7-.8-3.2-2.3-4.1zm-42.5-61.1 37.9 22-38 20.9-39.7-20.8zm-25.1 36 23 12c.6.4 1.4.6 2.1.6.9 0 1.7-.3 2.5-.9l21.5-11.8 13.9 8.1-37.8 21-39.8-21zm25.2 49.6-39.8-20.8 13.3-7.4 24.2 12.8c.6.5 1.4.7 2.2.7.7 0 1.5-.2 2.2-.6l22.9-12.7 12.9 7.2z" />
                    </svg>