<svg enable-background="new 0 0 500 500" height="25" viewBox="0 0 500 500" width="25"
                         xmlns="http://www.w3.org/2000/svg">
    <path d="m490.5 326.5c-8.5-25.5-35-40.5-61-33.5l-117 30c.5-2.5.5-5 .5-8 0-25.5-20.5-46.5-46.5-46.5h-95.5c-5.5-15.5-20-26.5-37.5-26.5h-86.5c-22 0-39.5 18-39.5 40v110c0 22 18 39.5 39.5 39.5h87c10.5 0 21-4.5 28.5-12l.5-.5 12 6c23 12 48.5 18 74 18 15 0 30.5-2 45.5-6.5l31-9 130.5-37.5c13-3.5 24-12 30.5-24s8-26 4-39.5zm-347.5 74c-2.5 2.5-5.5 3.5-8.5 3.5h-87.5c-7 0-12-5.5-12-12v-110c0-7 5.5-12 12-12h86.5c7 0 12 5.5 12 12.5v110.5c.5 2.5-.5 5.5-2.5 7.5zm319-47.5c-3 5.5-8 9-13.5 11l-36 10.5v-.5l-125.5 36.5c-33.5 9.5-68.5 6-99-9.5l-14.5-7.5c0-.5 0-1 0-1.5v-95.5h93c10.5 0 19 8.5 19 19 0 15.5-12.5 27.5-27.5 27.5h-28.5c-7.5 0-14 6-14 14s6 14 14 14h28.5c14.5 0 27.5-5.5 37-14.5l141.5-36.5c12-3 24 3.5 28 15 1.5 6 .5 12.5-2.5 18z" />
    <path d="m440.95 121.081c-.358-.027-.718-.054-1.078-.083.211.166.422.331.628.502.148-.141.304-.277.45-.419z" />
    <path d="m440.95 121.081c15.05-6.581 21.511-21.732 21.511-33.081 0-13-5-25.5-14.5-35-9-9.5-21.5-14.5-35-14.5h-16v-14c0-8-6-14-14-14s-14 6.5-14 14v14h-15.961c-7.5 0-14 5.5-14 13.5s6.5 14 14 14h4.285l.064 89.667c0 7.088 5.597 12.833 12.5 12.833s12.5-5.746 12.5-12.833l-.169-89.667h30.781c6 0 12 2.5 16 6.5 4 4.5 6.5 10 6.5 16 0 15.5-11.627 22.5-24.818 22.5-18.5 0-23.809 27.833 0 28.202l6 .5h-4.643c12.5 0 22.5 8.298 22.5 20.798s-10 22.5-22.5 22.5h-22c-.5 0-.5 0-1 0s-.5 0-1 0h-35.461c-7.5 0-14 6-14 14s6 14 14 14h16.461v13.5c0 7.5 6 14 14 14s14-6 14-14v-13.5h15.5c27.5 0 50-22.5 50-50 0-17.93-9-32-22-39.5" />
</svg>
