<svg enable-background="new 0 0 100 100" viewBox="0 0 100 100"
                         xmlns="http://www.w3.org/2000/svg">
                        <path d="m50 57c13.2 0 24-10.8 24-24s-10.8-24-24-24-24 10.7-24 24 10.8 24 24 24zm0-42.5c10.2 0 18.5 8.3 18.5 18.5s-8.3 18.5-18.5 18.5-18.5-8.3-18.5-18.5 8.3-18.5 18.5-18.5z" />
                        <path d="m97.9 86.2c-13.2-11.7-30.2-18.2-47.9-18.2s-34.7 6.5-47.9 18.2c-1.1 1-1.2 2.7-.2 3.9 1 1.1 2.7 1.2 3.9.2 12.1-10.8 27.9-16.8 44.2-16.8s32.1 6 44.3 16.8c.5.5 1.2.7 1.8.7.8 0 1.5-.3 2.1-.9 1-1.1.9-2.9-.3-3.9z" />
                    </svg>