<svg enable-background="new 0 0 500 500" height="25" viewBox="0 0 500 500" width="25" xmlns="http://www.w3.org/2000/svg">
    <path d="m29.055 91.334v55.166 107.5 107.5 28.5.5c0 2-.636 5.35.364 8.85 0 1 .5 2 1 3.5 12.999 49.5 102.581 82.65 219.581 82.65 99.5 0 206.15-25.5 220.65-83l1.287-5v-36.5-107.5-107-49.5c-15.499-49.5-101.937-82.5-221.937-82.5h-6.5c-20 .5-41 1.5-62.5 4-20 3-37 5.5-55 10.5-14 4-30 9-44.5 16.5-16 7.5-41.445 27.334-52.445 45.834zm415.945 140.666c-49.769 42.193-128.65 51.447-194.649 51.447-66 0-145.582-9.254-195.351-51.447v-79c49.996 41.747 129.351 50.958 195.351 50.958 65.999 0 144.653-9.209 194.649-50.958zm-390 28.5c49.996 41.747 129.351 50.947 195.351 50.947 65.999 0 144.653-9.199 194.649-50.947v79c-49.77 42.193-128.65 51.447-194.649 51.447-66 0-145.582-9.254-195.351-51.447zm6-165.5c7-11.5 20-19 33-25 13-6.5 27.5-11 39.5-14.5 16.5-4.5 32.5-7 51.5-9.5 19.5-2.5 43.667-3.333 63.167-3.833 120.5 0 186.833 32.333 195.333 61.833l.5 1.5 1 1.5v17.5c-49.769 42.193-128.65 51.458-194.649 51.458-66 0-145.582-9.264-195.351-51.458v-18.5c1-1 1.5-2.5 2-4zm383.5 301.5c-9.5 34.5-94.5 61.5-194.5 61.5-111.5 0-186.5-32-194.5-62.5 0 0 0-.5-.5-1v-2c0-.5 0-1.5 0-2v-22.5c49.996 41.747 129.351 50.947 195.351 50.947 65.999 0 144.653-9.199 194.649-50.947v26.5z" />
</svg>
