<svg enable-background="new 0 0 500 500" height="25" viewBox="0 0 500 500" width="25"
                         xmlns="http://www.w3.org/2000/svg">
                        <path d="m475.297 239.812h-14.822v185.583h-253.953v-177.183h-132.411v177.184h-33.597v-185.584h-14.822v185.583h-24.704v74.11h499.012v-74.11h-24.703zm-386.364 23.2h102.767v161.396h-102.767zm396.245 221.672h-469.368v-44.466h469.368z" />
                        <path d="m.988 78v28h24.704v17.642h14.822v-17.642h419.961v17.642h14.822v-17.642h24.703v-28l-250-77.506zm484.19 13.178h-469.368l234.684-70.178z" />
                        <path d="m499.337 123.706h-18.379-41.658-18.379-41.658-18.378-41.658-18.379-41.658-18.378-41.659-18.378-41.658-18.379-41.659-18.379-60.037v72.184c0 17.408 17.562 31.571 39.146 31.571h.123c12.011 0 22.771-4.39 29.957-11.279 7.188 6.889 17.946 11.279 29.958 11.279h.122c12.012 0 22.771-4.39 29.958-11.279 7.187 6.889 17.946 11.279 29.958 11.279h.122c12.011 0 22.771-4.39 29.957-11.279 7.188 6.889 17.946 11.279 29.958 11.279h.123c12.011 0 22.771-4.39 29.958-11.279 7.187 6.889 17.946 11.279 29.957 11.279h.122c12.012 0 22.771-4.39 29.958-11.279 7.188 6.889 17.946 11.279 29.957 11.279h.122c12.011 0 22.771-4.39 29.958-11.279 7.187 6.889 17.946 11.279 29.957 11.279h.122c12.012 0 22.771-4.39 29.957-11.279 7.188 6.889 17.947 11.279 29.958 11.279h.122c12.012 0 21.604-4.597 29.957-11.279s9.189-20.292 9.189-20.292v-57.362m-60.039 0h41.658v57.362c0 9.236-9.316 16.749-20.768 16.749h-.122c-11.453 0-20.769-7.514-20.769-16.749v-57.362zm-60.037 0h41.658v57.362c0 9.236-9.316 16.749-20.768 16.749h-.122c-11.453 0-20.769-7.514-20.769-16.749v-57.362zm-60.036 0h41.658v57.362c0 9.236-9.317 16.749-20.769 16.749h-.122c-11.452 0-20.768-7.514-20.768-16.749v-57.362zm-60.038 0h41.658v57.362c0 9.236-9.316 16.749-20.769 16.749h-.122c-11.452 0-20.768-7.514-20.768-16.749v-57.362zm-60.037 0h41.658v57.362c0 9.236-9.316 16.749-20.768 16.749h-.123c-11.453 0-20.768-7.514-20.768-16.749v-57.362zm-60.036 0h41.658v57.362c0 9.236-9.317 16.749-20.768 16.749h-.122c-11.453 0-20.768-7.514-20.768-16.749zm-60.037 0h41.658v57.362c0 9.236-9.316 16.749-20.768 16.749h-.122c-11.453 0-20.768-7.514-20.768-16.749zm-60.037 0h41.658v57.362c0 9.236-9.317 16.749-20.768 16.749h-.122c-11.452 0-20.768-7.514-20.768-16.749z" />
                        <path d="m231.225 381.917h212.451v-133.705h-212.451zm14.822-118.905h182.806v104.083h-182.806z" />
                    </svg>