<svg enable-background="new 0 0 500 500" height="30" viewBox="0 0 500 500" width="30"
     xmlns="http://www.w3.org/2000/svg">
    <path d="m250.815 9.146c-136.852 0-247.321 110.47-247.321 247.321 0 108.821 70.899 201.153 169.827 234.13 13.19 1.647 16.488-4.947 16.488-11.542v-42.869c-69.25 14.84-84.089-32.976-84.089-32.976-11.542-28.029-28.03-36.274-28.03-36.274-23.083-14.839 1.648-14.839 1.648-14.839 24.732 1.649 37.923 24.731 37.923 24.731 21.435 37.924 57.708 26.382 72.548 19.786 1.648-16.489 8.244-26.381 16.487-32.976-54.41-6.595-112.118-28.029-112.118-122.012 0-26.381 9.893-49.464 24.732-65.952-3.298-6.595-11.542-31.327 1.648-65.952 0 0 21.435-6.596 67.601 24.732 19.786-4.947 41.22-8.244 62.655-8.244s42.868 3.297 62.655 8.244c47.815-31.328 67.601-24.732 67.601-24.732 13.189 34.625 4.946 59.357 1.649 65.952 16.487 16.488 24.731 39.571 24.731 65.952 0 95.63-57.708 115.417-112.118 122.012 8.242 8.244 16.487 23.084 16.487 46.166v67.602c0 6.596 4.946 14.838 16.489 11.54 98.927-32.976 168.177-125.308 168.177-234.129 1.652-135.201-108.819-245.671-245.67-245.671z"
          fill="#fff" />
</svg>
