<svg enable-background="new 0 0 300 244.189" height="24.4189" viewBox="0 0 300 244.189"
     width="30" xmlns="http://www.w3.org/2000/svg">
    <path d="m633.9 812.042c112.459 0 173.959-93.168 173.959-173.96 0-2.646-.054-5.281-.172-7.903 11.938-8.63 22.313-19.4 30.498-31.66-10.955 4.869-22.744 8.147-35.111 9.626 12.623-7.569 22.314-19.543 26.886-33.817-11.813 7.003-24.896 12.093-38.823 14.841-11.158-11.884-27.041-19.316-44.63-19.316-33.764 0-61.144 27.381-61.144 61.132 0 4.798.536 9.465 1.585 13.94-50.815-2.557-95.874-26.886-126.03-63.88-5.25 9.035-8.278 19.531-8.278 30.73 0 21.212 10.794 39.938 27.208 50.893-10.031-.31-19.454-3.063-27.69-7.646-.009.257-.009.507-.009.78 0 29.61 21.075 54.332 49.051 59.935-5.138 1.4-10.543 2.151-16.122 2.151-3.934 0-7.766-.387-11.491-1.103 7.784 24.293 30.355 41.971 57.115 42.465-20.926 16.402-47.287 26.171-75.937 26.171-4.929 0-9.798-.28-14.584-.846 27.059 17.344 59.189 27.464 93.722 27.464"
          transform="translate(-539.18 -568.86)"
          fill="#fff"/>
</svg>
